<?xml version="1.0" encoding="iso-8859-1"?>
<!-- Generator: Adobe Illustrator 19.0.0, SVG Export Plug-In . SVG Version: 6.00 Build 0)  -->
<svg version="1.1" id="Capa_1" xmlns="http://www.w3.org/2000/svg" xmlns:xlink="http://www.w3.org/1999/xlink" x="0px" y="0px"
	 viewBox="0 0 479.989 479.989" style="enable-background:new 0 0 479.989 479.989;" xml:space="preserve">
<linearGradient id="SVGID_1_" gradientUnits="userSpaceOnUse" x1="-56.5213" y1="603.618" x2="2.5397" y2="603.618" gradientTransform="matrix(8 0 0 -8 454.9672 4941.0005)">
	<stop  offset="0" style="stop-color:#BC4E9C"/>
	<stop  offset="1" style="stop-color:#F80759"/>
</linearGradient>
<path style="fill:url(#SVGID_1_);" d="M127.205,123.352l59.648,50.744c2.994,2.561,7.406,2.561,10.4,0l59.552-50.744
	c17.379-13.837,20.251-39.143,6.413-56.523c-1.889-2.373-4.041-4.524-6.413-6.413c-18.605-14.879-44.568-16.418-64.8-3.84
	c-20.23-12.585-46.198-11.046-64.8,3.84c-17.379,13.837-20.251,39.143-6.413,56.523C122.68,119.311,124.832,121.463,127.205,123.352
	L127.205,123.352z M137.565,72.6c14.402-11.552,34.894-11.552,49.296,0c2.978,2.554,7.374,2.554,10.352,0
	c14.396-11.56,34.892-11.56,49.288,0c10.65,8.133,12.691,23.36,4.558,34.01c-1.31,1.715-2.842,3.248-4.558,4.558l-54.496,46.336
	L137.541,111.2c-10.65-8.14-12.685-23.373-4.544-34.024c1.307-1.71,2.835-3.238,4.544-4.544L137.565,72.6z"/>
<g>
	
		<linearGradient id="SVGID_2_" gradientUnits="userSpaceOnUse" x1="-56.5213" y1="574.6183" x2="2.5397" y2="574.6183" gradientTransform="matrix(8 0 0 -8 454.9672 4941.0005)">
		<stop  offset="0" style="stop-color:#BC4E9C"/>
		<stop  offset="1" style="stop-color:#F80759"/>
	</linearGradient>
	<path style="fill:url(#SVGID_2_);" d="M341.165,305.6c-12.59-10.994-30.834-12.61-45.16-4c-14.326-8.61-32.57-6.994-45.16,4
		c-13.275,11.727-14.529,31.995-2.802,45.27c0.875,0.991,1.811,1.927,2.802,2.802l39.768,36.248c3.055,2.787,7.729,2.787,10.784,0
		l39.768-36.248c13.275-11.727,14.529-31.995,2.802-45.27C343.091,307.411,342.156,306.475,341.165,305.6z M330.405,341.832
		l-34.4,31.336l-34.4-31.336c-6.74-5.762-7.533-15.897-1.771-22.637c0.543-0.635,1.135-1.227,1.771-1.771
		c8.288-7.285,20.696-7.285,28.984,0c3.055,2.787,7.729,2.787,10.784,0c8.29-7.281,20.694-7.281,28.984,0
		c6.74,5.762,7.533,15.897,1.771,22.637c-0.543,0.635-1.135,1.227-1.771,1.771H330.405z"/>
	
		<linearGradient id="SVGID_3_" gradientUnits="userSpaceOnUse" x1="-56.5213" y1="599.6252" x2="2.5397" y2="599.6252" gradientTransform="matrix(8 0 0 -8 454.9672 4941.0005)">
		<stop  offset="0" style="stop-color:#BC4E9C"/>
		<stop  offset="1" style="stop-color:#F80759"/>
	</linearGradient>
	<path style="fill:url(#SVGID_3_);" d="M34.565,285.864c2.611,2.421,6.508,2.826,9.56,0.992l105.008-63
		c0.96,0,1.904,0.144,2.872,0.144h80c61.856,0,112-50.144,112-112s-50.144-112-112-112h-80
		C90.224-0.073,40.082,49.951,40.009,111.732c-0.036,30.626,12.486,59.927,34.644,81.068l-41.808,83.624
		C31.258,279.604,31.958,283.449,34.565,285.864z M56.005,112c0.057-52.996,43.004-95.943,96-96h80c53.019,0,96,42.981,96,96
		s-42.981,96-96,96h-80C99.009,207.943,56.062,164.996,56.005,112z M87.317,203.264c11.073,7.866,23.49,13.641,36.64,17.04
		l-64.504,38.704L87.317,203.264z"/>
	
		<linearGradient id="SVGID_4_" gradientUnits="userSpaceOnUse" x1="-56.5213" y1="571.6258" x2="2.5397" y2="571.6258" gradientTransform="matrix(8 0 0 -8 454.9672 4941.0005)">
		<stop  offset="0" style="stop-color:#BC4E9C"/>
		<stop  offset="1" style="stop-color:#F80759"/>
	</linearGradient>
	<path style="fill:url(#SVGID_4_);" d="M410.765,395.64c30.804-34.588,27.737-87.599-6.851-118.404
		c-15.393-13.709-35.296-21.269-55.909-21.236h-96c-46.392,0-84,37.608-84,84s37.608,84,84,84h92.448l91.432,54.856
		c3.793,2.265,8.705,1.027,10.97-2.767c1.39-2.328,1.507-5.201,0.31-7.633L410.765,395.64z M184.005,340
		c0.044-37.537,30.463-67.956,68-68h96c37.555,0,68,30.445,68,68s-30.445,68-68,68h-96C214.468,407.956,184.049,377.537,184.005,340
		L184.005,340z M370.405,420.888c10.186-2.827,19.744-7.559,28.168-13.944l22.032,44.064L370.405,420.888z"/>
</g>
<g>
</g>
<g>
</g>
<g>
</g>
<g>
</g>
<g>
</g>
<g>
</g>
<g>
</g>
<g>
</g>
<g>
</g>
<g>
</g>
<g>
</g>
<g>
</g>
<g>
</g>
<g>
</g>
<g>
</g>
</svg>
